<svg width="400" height="400" viewBox="0 0 400 400" xmlns="http://www.w3.org/2000/svg">
  <defs>
    <linearGradient id="bg" x1="0" y1="0" x2="1" y2="1">
      <stop offset="0%" stop-color="#f8f5f0"/>
      <stop offset="100%" stop-color="#efe9e0"/>
    </linearGradient>
  </defs>
  <rect width="400" height="400" rx="80" fill="url(#bg)"/>
  <circle cx="340" cy="60" r="100" fill="rgba(91,154,125,0.06)"/>
  <circle cx="60" cy="360" r="70" fill="rgba(91,154,125,0.04)"/>
  <!-- Book -->
  <rect x="140" y="100" width="120" height="140" rx="12" fill="#5b9a7d"/>
  <rect x="140" y="100" width="16" height="140" rx="8" fill="#3d7a5e"/>
  <!-- Lines -->
  <rect x="172" y="140" width="70" height="3" rx="2" fill="rgba(255,255,255,0.5)"/>
  <rect x="172" y="156" width="55" height="3" rx="2" fill="rgba(255,255,255,0.5)"/>
  <rect x="172" y="172" width="65" height="3" rx="2" fill="rgba(255,255,255,0.5)"/>
  <rect x="172" y="188" width="45" height="3" rx="2" fill="rgba(255,255,255,0.5)"/>
  <!-- Leaf -->
  <path d="M258 96C248 96 244 106 244 114c0 2 1 4 3 5 2-8 6-14 14-18-2 6-3 12-2 18 2-1 4-3 5-5C266 106 264 96 258 96z" fill="#5b9a7d"/>
  <!-- Heart -->
  <path d="M254 234C246 228 243 224 243 220c0-3 2-5 5-5 2 0 4 1 6 4 2-3 4-4 6-4 3 0 5 2 5 5 0 4-3 8-11 14z" fill="#e8886f" opacity="0.7"/>
  <!-- Text -->
  <text x="200" y="310" text-anchor="middle" font-family="PingFang SC,sans-serif" font-size="52" font-weight="700" fill="#3d7a5e" letter-spacing="8">此间有序</text>
</svg>
